<?xml version="1.0" encoding="utf-8"?>
<!-- Generator: Adobe Illustrator 22.0.1, SVG Export Plug-In . SVG Version: 6.00 Build 0)  -->
<svg version="1.1" id="Layer_1" xmlns="http://www.w3.org/2000/svg" xmlns:xlink="http://www.w3.org/1999/xlink" x="0px" y="0px"
	 viewBox="0 0 567 171" style="enable-background:new 0 0 567 171;" xml:space="preserve">
<style type="text/css">
	.st0{fill:#F9F9F9;}
	.st1{fill:#000024;stroke:#000000;stroke-miterlimit:10;}
	.st2{fill:#FFFFFF;}
</style>
<g>
	<g>
		<path class="st0" d="M185.1,91.1l-14.6,37.8h-9.3l17.6-45.1l-16.5-42.4h10.1l13.5,35l13.6-35h9.1l-16.4,42.4l17.5,45.1h-10.3
			L185.1,91.1z"/>
		<path class="st0" d="M227.6,111.2l-3.4,17.6h-9L232,41.3h14.1l16.8,87.5h-9.8l-3.4-17.6H227.6z M228.9,102.8h19.5l-9.9-50.5
			L228.9,102.8z"/>
		<path class="st0" d="M291,41.3c6.8,0,11.9,1.9,15.1,5.8c3.2,3.9,4.8,9.2,4.8,15.9v44.1c0,6.8-1.6,12-4.8,15.9
			c-3.2,3.8-8.2,5.8-15.1,5.8h-20.5V41.3H291z M290.9,119.9c3.5,0,6.1-1.1,7.8-3.2c1.7-2.1,2.6-5.2,2.6-9.2v-45c0-4-0.9-7.1-2.6-9.2
			c-1.7-2.1-4.4-3.2-7.9-3.2h-10.5v69.8H290.9z"/>
		<path class="st0" d="M339.5,41.3c6.9,0,11.9,1.7,14.9,5.1c3,3.4,4.6,8.4,4.6,14.9v7.1c0,4.8-0.9,8.8-2.6,11.8s-4.5,5.1-8.3,6.3
			c4,1.2,6.8,3.3,8.5,6.4c1.7,3.1,2.5,7.1,2.5,11.8v13.6c0,1.9,0.1,3.8,0.3,5.6c0.2,1.8,0.7,3.4,1.5,4.9H351c-0.6-1.3-1-2.6-1.3-4.1
			c-0.3-1.5-0.4-3.6-0.4-6.6v-13.8c0-4.9-1.1-8.3-3.3-10.2c-2.2-1.9-5.4-2.8-9.4-2.8h-6.9v37.4H320V41.3H339.5z M337,82.6
			c3.9,0,7-0.8,9.1-2.4c2.2-1.6,3.3-4.8,3.3-9.6v-8.4c0-4-0.8-7-2.3-9c-1.5-2-4.1-3-7.8-3h-9.5v32.4H337z"/>
		<path class="st0" d="M400.4,80.1v8.8H379v31.1h26.3v8.9h-36V41.3h36v8.9H379v29.9H400.4z"/>
		<path class="st0" d="M452.6,128.8h-39.8v-8.8l30-69.9h-28.6v-8.9h38.6v8.8l-30.1,69.9h29.9V128.8z"/>
	</g>
	<polyline class="st1" points="-1.7,169.9 84,169.9 84,1.1 -1.7,1.1 	"/>
	<g>
		<path class="st2" d="M61.3,41.3c7.3,0,12.6,2,15.8,6c3.3,4,4.9,9.5,4.9,16.5V75c0,7.4-1.7,12.9-5.2,16.7
			c-3.5,3.7-8.9,5.6-16.3,5.6h-9.1v36.4H41.1V41.3H61.3z M60.5,88c3.9,0,6.7-0.9,8.6-2.8c1.8-1.9,2.8-5.1,2.8-9.6V63.3
			c0-4.2-0.8-7.4-2.4-9.5c-1.6-2.1-4.3-3.2-8.1-3.2h-9.9V88H60.5z"/>
		<path class="st0" d="M123.3,82.2v9.2h-22.6v32.8h27.7v9.4h-38V41.3h38v9.4h-27.7v31.5H123.3z"/>
	</g>
</g>
</svg>
